<?xml version="1.0" standalone="no"?>
<!DOCTYPE svg PUBLIC "-//W3C//DTD SVG 20010904//EN"
 "http://www.w3.org/TR/2001/REC-SVG-20010904/DTD/svg10.dtd">
<svg version="1.0" xmlns="http://www.w3.org/2000/svg"
 width="1280.000000pt" height="1280.000000pt" viewBox="0 0 1280.000000 1280.000000"
 preserveAspectRatio="xMidYMid meet">
<metadata>
Created by potrace 1.15, written by Peter Selinger 2001-2017
</metadata>
<g transform="translate(0.000000,1280.000000) scale(0.100000,-0.100000)"
fill="#ffeb3b" stroke="none">
<path d="M45 12750 l-29 -30 397 -398 397 -398 0 -2724 0 -2724 -37 -38 -37
-38 37 -38 37 -38 0 -2724 0 -2724 -397 -398 -398 -398 33 -32 32 -33 398 398
398 397 2724 0 2724 0 38 -37 38 -37 38 37 38 37 2724 0 2724 0 398 -397 398
-398 32 33 33 32 -398 398 -397 398 0 2724 0 2724 37 38 37 38 -37 38 -37 38
0 2724 0 2724 397 398 398 398 -33 32 -32 33 -398 -398 -398 -397 -2724 0
-2724 0 -38 37 -38 37 -38 -37 -38 -37 -2724 0 -2724 0 -396 395 c-217 217
-398 395 -401 395 -3 0 -18 -14 -34 -30z"/>
</g>
</svg>
